<svg width="23" height="23" viewBox="0 0 23 23" fill="none" xmlns="http://www.w3.org/2000/svg">
<path d="M11.2288 6.0752C10.554 6.0733 9.88554 6.20449 9.26179 6.46122C8.63804 6.71795 8.07134 7.09516 7.59428 7.57114C7.11722 8.04712 6.73922 8.61249 6.48202 9.23472C6.22483 9.85695 6.09351 10.5238 6.09563 11.1968C6.09372 11.8696 6.22521 12.5362 6.48252 13.1581C6.73983 13.7801 7.11789 14.3452 7.59495 14.8209C8.072 15.2966 8.63865 15.6735 9.26228 15.9299C9.88592 16.1864 10.5542 16.3173 11.2288 16.3152C11.9032 16.3171 12.5714 16.186 13.1948 15.9295C13.8183 15.6729 14.3847 15.296 14.8616 14.8203C15.3385 14.3446 15.7164 13.7796 15.9736 13.1578C16.2308 12.5359 16.3623 11.8695 16.3604 11.1968C16.3627 10.5238 16.2316 9.85707 15.9745 9.23484C15.7175 8.61262 15.3397 8.04724 14.8627 7.57124C14.3858 7.09523 13.8192 6.718 13.1956 6.46125C12.5719 6.2045 11.9035 6.0733 11.2288 6.0752ZM11.2288 14.4752C10.3566 14.4752 9.52022 14.1296 8.90352 13.5145C8.28682 12.8994 7.94036 12.0651 7.94036 11.1952C7.94036 10.3253 8.28682 9.49101 8.90352 8.87589C9.52022 8.26077 10.3566 7.9152 11.2288 7.9152C12.1009 7.9152 12.9374 8.26077 13.5541 8.87589C14.1708 9.49101 14.5172 10.3253 14.5172 11.1952C14.5172 12.0651 14.1708 12.8994 13.5541 13.5145C12.9374 14.1296 12.1009 14.4752 11.2288 14.4752ZM19.2494 3.2C18.7489 2.7008 17.8329 2.8032 17.2073 3.4272C16.5817 4.0528 16.4807 4.9616 16.9811 5.4624C17.4816 5.9632 18.396 5.8624 19.0232 5.2368C19.6488 4.6128 19.7498 3.6992 19.2494 3.2ZM3.43601 17.1664C2.8088 17.7904 2.70774 18.7008 3.20823 19.2C3.70871 19.6992 4.62305 19.6 5.25026 18.9744C5.87747 18.3488 5.97853 17.4368 5.47805 16.9376C4.97756 16.4384 4.06161 16.5408 3.43601 17.1664ZM3.20823 3.2C2.70774 3.6992 2.8088 4.6128 3.43441 5.2368C4.06161 5.8624 4.97596 5.9616 5.47644 5.4624C5.97693 4.9632 5.87587 4.0496 5.24866 3.4256C4.62466 2.8032 3.70871 2.7008 3.20823 3.2ZM17.2073 18.9712C17.8329 19.5968 18.7473 19.6992 19.2494 19.2C19.7514 18.7008 19.6488 17.7872 19.0216 17.1616C18.3944 16.536 17.4816 16.4368 16.9795 16.936C16.4775 17.4352 16.5817 18.3472 17.2073 18.9712ZM11.2288 3.1968C11.9362 3.1968 12.5121 2.4816 12.5121 1.5968C12.5105 0.712 11.9362 0 11.2288 0C10.5198 0 9.9439 0.712 9.9439 1.5968C9.9439 2.4816 10.5182 3.1968 11.2288 3.1968ZM11.2288 22.4C11.9362 22.4 12.5121 21.6848 12.5121 20.8C12.5121 19.9152 11.9378 19.2032 11.2304 19.2032C10.5214 19.2032 9.9455 19.9152 9.9455 20.8C9.9439 21.6848 10.5182 22.4 11.2288 22.4ZM3.20823 11.2C3.20823 10.4944 2.48638 9.92 1.5993 9.92C0.712226 9.92 0 10.4944 0 11.2C0 11.9072 0.712226 12.48 1.5993 12.48C2.48638 12.48 3.20823 11.9072 3.20823 11.2ZM22.4576 11.2C22.4576 10.4944 21.7389 9.92 20.8519 9.92C19.9648 9.92 19.2494 10.4944 19.2494 11.2C19.2494 11.9072 19.9648 12.48 20.8519 12.48C21.7389 12.48 22.4576 11.9072 22.4576 11.2Z" fill="white"/>
</svg>
